# xmcd
#
# Track frame offsets:
#	150
#	15495
#	28617
#	41145
#	53170
#	68645
#	84407
#	98980
#	116530
#	133505
#	151252
#
# Disc length: 2236 seconds
#
# Revision: 0
# Processed by: cddbd v1.5.2PL0 Copyright (c) Steve Scherf et al.
# Submitted via: EasyCDDAExtractor 15.3.0.1
#
DISCID=8308ba0b
DTITLE=Ana Barbara - Te Regalo La Lluvia
DYEAR=2001
DGENRE=Latin
TTITLE0=Te Regalo La Lluvia
TTITLE1=Con Esta Hembra No Se Juega
TTITLE2=Bailare
TTITLE3=Te Extraño (Un Te Quiero)
TTITLE4=Ahora Que
TTITLE5=Estar Sin Ti
TTITLE6=Eso No Es De Hombres
TTITLE7=Ya Te Puedes Ir
TTITLE8=Quien Te Invento
TTITLE9=Sueño Mojado
TTITLE10=Te Regalo La Lluvia (Version Pop)
EXTD=
EXTT0=
EXTT1=
EXTT2=
EXTT3=
EXTT4=
EXTT5=
EXTT6=
EXTT7=
EXTT8=
EXTT9=
EXTT10=
PLAYORDER=
